<?xml version="1.0" encoding="UTF-8" standalone="no"?>
<!-- Created with Inkscape (http://www.inkscape.org/) -->

<svg
   version="1.1"
   id="svg1"
   width="680"
   height="680"
   viewBox="363 68 680 680"
   sodipodi:docname="circleLogo.svg"
   inkscape:version="1.4.2 (f4327f4, 2025-05-13)"
   xmlns:inkscape="http://www.inkscape.org/namespaces/inkscape"
   xmlns:sodipodi="http://sodipodi.sourceforge.net/DTD/sodipodi-0.dtd"
   xmlns="http://www.w3.org/2000/svg"
   xmlns:svg="http://www.w3.org/2000/svg">
  <defs
     id="defs1" />
  <sodipodi:namedview
     id="namedview1"
     pagecolor="#ffffff"
     bordercolor="#000000"
     borderopacity="0.25"
     inkscape:showpageshadow="2"
     inkscape:pageopacity="0.0"
     inkscape:pagecheckerboard="0"
     inkscape:deskcolor="#d1d1d1"
     inkscape:zoom="0.125"
     inkscape:cx="-300"
     inkscape:cy="780"
     inkscape:window-width="1920"
     inkscape:window-height="1057"
     inkscape:window-x="-8"
     inkscape:window-y="-8"
     inkscape:window-maximized="1"
     inkscape:current-layer="g511" />
  <g
     inkscape:groupmode="layer"
     inkscape:label="Image"
     id="g1">
    <g
       id="g511">
      <path
         style="fill:#3cafa0;fill-opacity:1;stroke:none;stroke-width:1;stroke-dasharray:none;stroke-opacity:1"
         d="m 560,406 c 0,0 -6.25,24.5 -5,23.25 1.25,-1.25 26,-6.75 26,-6.75 0,0 26,5 27.5,5.5 1.5,0.5 20,18.25 20,18.25 0,0 12.25,20.75 13,22 0.75,1.25 3.5,19 3.5,19 l -5.75,22.25 -5.75,19.5 -20.75,19.5 c 0,0 -28.25,7.75 -30.75,7.5 -2.5,-0.25 -19.25,-5.25 -24.5,-8 -5.25,-2.75 -19.75,-13 -19.75,-13 l -7.25,9.25 0.25,44.25 5.25,13 -25.5,4 -14,11.25 -9,19.25 2,12 13,6 6.5,9.75 8.5,12.75 14,-3 7.25,8.75 c 0,0 1.25,7 3.75,8.25 2.5,1.25 18.75,1.75 18.75,1.75 l 11,-13 16.75,7.75 9.25,2.25 23.75,12.5 31.75,5 76,4 63.25,-7 c 0,0 16,-8.75 15.75,-9.75 -0.25,-1 17.5,-6.5 17.5,-6.5 l 14,-3.75 15.25,9.5 c 0,0 13,-3.75 13.25,-5.5 0.25,-1.75 7.25,-14 7.25,-14 l 15.5,0.5 c 0,0 8.75,-6.5 8.5,-8.75 -0.25,-2.25 1.25,-11.75 2.25,-12 1,-0.25 15,-2.25 15,-2.25 0,0 3.75,-12 3.75,-14.25 0,-2.25 -4.75,-18.75 -7.25,-19.75 -2.5,-1 -22.25,-14.25 -26.25,-14.25 -4,0 -18.75,-1.25 -18.75,-1.25 0,0 1.5,-7.25 3.75,-10.25 2.25,-3 9.5,-37.75 9.5,-37.75 0,0 -1.5,-17 -3.75,-18 -2.25,-1 -7,-8.25 -8.5,-4.5 -1.5,3.75 -21.5,16.25 -21.5,16.25 0,0 -17,7.75 -19.75,7.5 -2.75,-0.25 -30.5,-7 -31.5,-8.75 -1,-1.75 -24.75,-24 -24.75,-24 0,0 -7.25,-13.5 -8.25,-16.75 -1,-3.25 -3.75,-30.25 -3,-32 0.75,-1.75 14.75,-21.75 14.75,-21.75 L 786.5,436 c 0,0 16,-11.25 18.5,-11.5 2.5,-0.25 33.25,-2.25 33.25,-2.25 l 12.5,4.5 0.25,-16.25 c 0,0 -9.5,-18.75 -12.25,-20.25 -2.75,-1.5 -19,-9.25 -22.75,-10 -3.75,-0.75 -27.75,-8.5 -27.75,-8.5 l -28,-14.25 -12.75,-13 c 0,0 -13,-28.5 -14.25,-29.5 -1.25,-1 -12,-17 -14,-17.75 -2,-0.75 -10.5,-7 -13.25,-7 -2.75,0 -18.5,6.25 -19.5,8 -1,1.75 -15.75,23 -16,24.25 -0.25,1.25 -7,16.5 -8,18.5 -1,2 -17.5,15.25 -17.5,15.25 l -38,23 c 0,0 -19,0 -21.25,1.5 -2.25,1.5 -24,22 -24,22 z"
         id="path505" />
      <path
         style="fill:#f8cd46;fill-opacity:1;stroke:#f8cd46;stroke-opacity:1"
         d="m 686,707.98087 c -6.875,-0.44431 -18.2473,-1.74677 -25.2717,-2.89435 C 653.7038,703.93893 647.7413,703 647.4783,703 c -3.6263,0 8.6976,-8.83411 18.7767,-13.4597 23.2487,-10.66947 52.3872,-10.69661 75.3866,-0.0702 4.1464,1.91575 10.5358,5.62424 14.1987,8.24108 l 6.6597,4.75789 -9,1.69996 c -18.9183,3.57335 -46.8145,5.1487 -67.5,3.81185 z"
         id="path64" />
      <path
         style="fill:#286c65;fill-opacity:1"
         d="m 679.08668,717.06007 c -98.6939,-8.67427 -187.2133,-59.26767 -246.6691,-140.98422 -56.0536,-77.04045 -75.7161,-176.2545 -53.3109,-269 20.1611,-83.45649 69.7925,-154.64811 140.48,-201.50526 68.5123,-45.415248 151.2094,-63.645814 233.7536,-51.530906 93.5618,13.731965 176.558,66.884106 228.8136,146.536166 29.31832,44.68922 47.35872,95.38144 53.56002,150.5 1.8518,16.45969 1.5824,54.41269 -0.5004,70.5 -4.0215,31.06037 -9.6913,53.67973 -20.3037,81 -23.22172,59.78163 -64.25962,112.3746 -118.32312,151.63932 -47.1045,34.21067 -100.4809,55.05337 -158.5,61.892 -12.3966,1.46118 -46.8803,2.01812 -59,0.9529 z m 46,-11.02974 c 77.057,-5.70986 149.0588,-39.37957 206.0916,-96.37323 53.7147,-53.67786 84.86472,-118.53386 93.45652,-194.58125 1.4202,-12.5705 1.4142,-47.81961 -0.01,-61 -8.5129,-78.75979 -41.82492,-147.82835 -97.18462,-201.5 -26.1411,-25.3441 -50.4878,-42.43545 -83.3535,-58.514113 -31.179,-15.253519 -60.1332,-24.101376 -97.0724,-29.663515 -17.2554,-2.598229 -69.8881,-2.610368 -86.4276,-0.01993 -62.2795,9.75431 -111.1928,30.715796 -158.1023,67.753698 -13.6622,10.78716 -40.2355,37.58447 -51.1514,51.58259 -28.8054,36.93896 -49.7221,79.86103 -60.6288,124.41322 -7.3049,29.83944 -8.6006,41.1936 -8.6096,75.44805 -0.01,26.45481 0.2699,31.83168 2.3427,45.5 26.4823,174.62239 187.0038,288.33948 340.6494,276.95448 z"
         id="path105"
         sodipodi:nodetypes="ssssssssssssssscssssssscss" />
      <path
         style="fill:#3cafa0;fill-opacity:1;stroke:none;stroke-width:1;stroke-dasharray:none;stroke-opacity:1"
         d="m 831.7502,672.45855 15.026,18.73833 29.1681,-17.67767 42.78,-33.05724 -3.5355,-17.85445 -35.7089,0.70711 z"
         id="path506" />
      <path
         style="fill:#3cafa0;fill-opacity:1;stroke:none;stroke-width:1;stroke-dasharray:none;stroke-opacity:1"
         d="m 576.5,675.25 -17,16 -70.5,-51.75 7.5,-21.25 z"
         id="path507" />
      <path
         style="fill:#2a7269;fill-opacity:1;stroke:#2a7269;stroke-opacity:1"
         d="M 796.2356,232.9675 C 788.18,231.1888 782,224.1393 782,216.7292 c 0,-1.9077 2.25,-13.8472 5,-26.5323 2.75,-12.685 4.9993,-23.4312 4.9984,-23.8803 -8e-4,-0.4491 -3.589,4.5834 -7.9737,11.1834 -8.8422,13.3098 -12.8063,16.5 -20.5027,16.5 -5.3718,0 -14.3721,-4.5202 -17.0429,-8.5594 -1.3758,-2.0808 -2.7905,-7.8389 -4.4223,-18 l -2.3993,-14.9406 -6.1024,24.2091 c -5.2122,20.6771 -6.5127,24.6372 -8.9143,27.1439 -8.6744,9.0542 -26.5191,4.888 -31.1645,-7.2759 -1.6163,-4.2323 -1.5844,-4.589 1.4176,-15.8376 1.6891,-6.3292 4.6141,-16.6224 6.4999,-22.8736 1.8859,-6.2512 5.7725,-19.4659 8.6369,-29.3659 5.9118,-20.4324 6.6825,-22.2395 11.0541,-25.9179 10.0559,-8.4615 26.536,-7.1415 35.7589,2.8642 4.7593,5.1632 5.3167,7.0871 8.1273,28.0537 1.1796,8.8 2.4562,16.7733 2.8369,17.7184 0.5299,1.3156 2.6843,-1.115 9.1921,-10.3708 13.2781,-18.8847 15.4385,-21.3974 20.508,-23.8515 3.816,-1.8473 5.79,-2.1657 10.8877,-1.7565 14.3551,1.1523 24.6043,10.2175 24.6043,21.7621 0,3.4484 -11.8043,67.6404 -15.1354,82.3068 -2.2925,10.0935 -11.4853,15.8989 -21.629,13.659 z"
         id="path104" />
      <path
         id="path102"
         style="mix-blend-mode:normal;fill:#2a7269;fill-opacity:1;stroke:#2a7269;stroke-opacity:1"
         d="m 614.9629,109.92383 c -13.6108,0.27425 -28.3711,8.12065 -33.1738,18.86523 -1.8159,4.0627 -1.8866,6.2809 -1.3321,42 0.6391,41.1763 1.1103,50.93853 2.6563,55.01953 1.3758,3.6316 4.7495,7.1627 8.3867,8.7793 4.273,1.8991 12.316,1.6795 17.041,-0.4668 8.2427,-3.7441 10.8697,-9.61355 10.252,-22.91015 l -0.293,-6.28906 13,-4.44141 c 7.15,-2.4428 13.2849,-4.44994 13.6328,-4.46094 0.3479,-0.0109 2.5559,2.93146 4.9063,6.53906 C 655.2069,210.49049 659.4023,213 667.5,213 c 12.6236,0 20.8531,-9.64516 18.2734,-21.41406 -0.8956,-4.0858 -2.7119,-6.78658 -32.2187,-47.86328 -18.2637,-25.4252 -23.2887,-30.99791 -29.4902,-32.72071 -2.8821,-0.8006 -5.9607,-1.14141 -9.1016,-1.07812 z M 613.416,145.25 c 0.1833,-0.1832 4.1933,5.64166 8.9102,12.94336 l 8.5761,13.27539 -7.2011,2.70703 c -3.9605,1.4889 -7.6947,2.73363 -8.2969,2.76563 -0.7249,0.0387 -1.3009,-5.25229 -1.707,-15.65039 -0.3373,-8.6395 -0.4645,-15.85772 -0.2813,-16.04102 z" />
      <path
         style="fill:#2a7269;fill-opacity:1;stroke:#2a7269;stroke-opacity:1"
         d="m 507.1046,289.4774 c -10.691,-2.9937 -22.3819,-11.0917 -31.0505,-21.5081 -15.438,-18.5506 -18.0351,-40.6164 -7.3236,-62.2229 5.3117,-10.7145 19.1173,-24.342 29.8448,-29.4596 6.828,-3.2574 8.8935,-3.781 14.9247,-3.7837 12.2793,0 17.5,4.8339 17.5,16.2217 0,5.7034 -0.3151,6.7442 -2.7915,9.2206 -1.5689,1.5688 -5.2365,3.5022 -8.3739,4.4143 C 506.9252,206.1126 498,216.1397 498,226.89 c 0,6.8833 2.5361,12.2956 8.6829,18.5305 15.8213,16.048 35.5538,12.3698 42.3106,-7.8867 1.1069,-3.3186 2.8581,-7.4198 3.8915,-9.1138 2.6114,-4.2809 8.2484,-6.7778 13.8708,-6.1441 12.0723,1.3608 17.4431,13.6607 12.2288,28.0057 -6.1074,16.8018 -19.9716,30.5708 -37.6237,37.3654 -8.6759,3.3395 -25.6313,4.2455 -34.2563,1.8304 z"
         id="path101" />
      <path
         style="fill:#2a7269;fill-opacity:1;stroke:#2a7269;stroke-opacity:1"
         d="m 870.6341,291.4135 c -14.7,-3.558 -31.0451,-17.2142 -38.2455,-31.9535 -3.8,-7.7787 -3.8886,-8.2105 -3.8886,-18.96 0,-9.9521 0.2662,-11.5686 2.7945,-16.9681 4.4024,-9.4018 8.9876,-14.6902 31.3994,-36.2143 22.8297,-21.9255 25.2857,-23.5217 32.9397,-21.4083 9.3943,2.5939 16.213,11.9596 14.931,20.5085 -0.977,6.5152 -4.4292,10.868 -21.0646,26.5604 -21.3701,20.1587 -24.1766,23.1908 -25.3297,27.367 -1.9415,7.0317 2.7525,14.9869 9.6013,16.2717 7.4321,1.3943 10.2238,-0.5075 31.6383,-21.5525 11.0625,-10.8717 21.6444,-20.5583 23.5154,-21.5258 4.8767,-2.5218 12.8424,-1.7159 17.4002,1.7605 4.2883,3.2708 7.6745,10.0306 7.6745,15.3203 0,7.6887 -3.7992,12.8843 -22.6428,30.9654 -24.6279,23.6313 -30.9363,28.0596 -43.3169,30.4076 -6.7915,1.2879 -10.1559,1.1761 -17.4062,-0.5789 z"
         id="path100" />
      <path
         style="fill:#9ecfba;fill-opacity:1;stroke:#9ecfba;stroke-opacity:1"
         d="m 623.506,379.90513 -4.8622,-2.78476 17.9281,-8.80291 c 22.5145,-11.05488 25.9068,-14.09094 33.4148,-29.90528 11.4477,-24.11273 14.1987,-29.15843 18.7074,-34.31261 4.9785,-5.69119 10.8509,-9.05565 15.8059,-9.05565 4.1969,0 10.4526,3.10978 14,6.95959 2.1318,2.31351 2.4212,2.96241 1,2.24223 -3.7509,-1.90071 -10.0939,-2.3768 -15.0476,-1.12943 -9.1173,2.29575 -15.2101,10.46511 -26.3898,35.38369 -9.068,20.21163 -12.2781,23.67344 -31.2299,33.67845 -6.586,3.47685 -13.4348,7.26428 -15.2195,8.4165 l -3.245,2.09494 z"
         id="path75" />
      <path
         style="fill:#9ecfba;fill-opacity:1;stroke:#9ecfba;stroke-opacity:1"
         d="m 560.4839,419.18464 c 0.3673,-1.47655 2.4009,-6.38936 4.519,-10.91734 4.6843,-10.01377 11.7349,-17.8095 19.7315,-21.81675 5.0669,-2.53919 6.8562,-2.89111 14.7656,-2.9042 7.6182,-0.0126 9.8444,0.38253 14.5,2.57368 6.1494,2.8942 12.0314,7.37579 8.5,6.47621 -14.1072,-3.59357 -26.7098,-3.23969 -34.4389,0.96704 -6.6734,3.63209 -14.4144,12.08742 -18.3231,20.01384 -2.5183,5.10677 -3.6469,6.36626 -6.4854,7.23743 -3.3995,1.04335 -3.4294,1.02577 -2.7687,-1.62991 z"
         id="path74" />
      <path
         style="fill:#d64e74;fill-opacity:1;stroke:#d64e74;stroke-opacity:1"
         d="m 734.9098,391.6898 c -15.0905,-5.6502 -23.6658,-25.8763 -20.7944,-49.0462 1.5114,-12.1958 9.5307,-28.35244 13.1253,-27.68964 1.057,0.1949 5.9243,8.18506 11.6961,19.86926 8.0832,16.3635 9.9602,17.14186 14.8985,21.63266 3.0707,2.7925 10.556,5.05339 14.0413,6.75279 8.6961,4.24 4.8653,8.85493 2.2158,13.14183 -3.0674,4.9632 -10.5572,11.5252 -15.8033,13.8458 -5.8054,2.568 -14.6824,3.2522 -19.3793,1.4935 z"
         id="path279"
         sodipodi:nodetypes="sssssssss" />
      <path
         style="fill:#d64e74;fill-opacity:1;stroke:#d64e74;stroke-opacity:1"
         d="m 666.3955,395.9189 c -8.2207,-2.385 -11.0342,-10.8827 -5.5478,-16.7559 1.5662,-1.6766 4.082,-3.3582 5.5906,-3.7369 6.7169,-1.6858 16.5617,5.2357 16.5617,11.6439 0,7.5881 -7.3851,11.5237 -16.6045,8.8489 z"
         id="path277" />
      <path
         style="fill:#d64e74;fill-opacity:1;stroke:#d64e74;stroke-opacity:1"
         d="m 727.3371,438.3945 c -6.2202,-3.0678 -6.7483,-10.2009 -1.3819,-18.6628 3.3378,-5.2631 7.3385,-7.7317 12.5303,-7.7317 6.7128,0 11.518,5.3019 11.5108,12.7003 -0.01,5.6261 -3.1632,10.0037 -9.2648,12.8445 -6.071,2.8265 -9.0085,3.0129 -13.3944,0.8497 z"
         id="path265" />
      <path
         style="fill:#d64e74;fill-opacity:1;stroke:#d64e74;stroke-opacity:1"
         d="M 682.413,457.2081 C 672.2253,451.5711 663,438.3758 663,429.441 c 0,-10.4066 6.6597,-16.4539 18.0879,-16.4246 11.826,0.03 18.7865,6.7924 20.9048,20.3088 2.3759,15.1595 -2.7041,25.7295 -12.3194,25.6329 -2.2953,-0.023 -5.5624,-0.8106 -7.2603,-1.75 z"
         id="path260" />
      <path
         style="fill:#d64e74;fill-opacity:1;stroke:#d64e74;stroke-opacity:1"
         d="m 708.7362,487.75 c -8.9436,-6.7915 3.1439,-29.6923 14.3707,-27.2265 9.2002,2.0207 7.8588,19.544 -2.0048,26.1878 -3.7573,2.5308 -9.7393,3.0333 -12.3659,1.0387 z"
         id="path243" />
      <path
         style="fill:#f8f7db;fill-opacity:1;stroke:none;stroke-width:1;stroke-dasharray:none;stroke-opacity:1"
         d="m 535.375,455.125 -10,21.375 c 0,0 -2.625,27.25 -0.875,30.375 1.75,3.125 8.375,19.75 11.375,23.25 3,3.5 16.375,15.625 16.375,15.625 0,0 31.5,11.125 32,11 0.5,-0.125 32.875,-11.125 32.875,-11.125 l 15.5,-16.75 11.5,-37.875 -5.5,-36.375 c 0,0 -16,-17.25 -16.625,-18 -0.625,-0.75 -24.625,-12.25 -24.625,-12.25 l -27.625,-1.5 -24.375,10.875 z"
         id="path508" />
      <path
         style="fill:#f8f7db;fill-opacity:1;stroke:none;stroke-width:1;stroke-dasharray:none;stroke-opacity:1"
         d="m 782.4295,443.35595 -16.9706,23.33452 0.7071,24.74874 6.364,36.76955 c 0,0 16.2634,14.14214 19.799,17.67767 3.5355,3.53554 26.1629,9.19239 26.1629,9.19239 l 33.234,-6.36396 21.2132,-21.92031 11.3137,-25.45584 -4.9497,-43.13352 c 0,0 -14.8493,-23.33452 -18.3848,-23.33452 -3.5355,0 -28.2843,-12.02082 -31.8198,-11.31371 -3.5355,0.70711 -27.5772,2.82843 -27.5772,2.82843 z"
         id="path509" />
      <path
         style="fill:#f9f4d8;fill-opacity:1;stroke:none;stroke-width:1;stroke-dasharray:none;stroke-opacity:1"
         d="m 789.5,492 19.5,-8 c 0,0 3,-19.5 0.5,-19.5 -2.5,0 -14,-1 -14,-1 L 785,472 Z"
         id="path510" />
      <path
         style="fill:#f9f4d8;fill-opacity:1;stroke:none;stroke-width:1;stroke-dasharray:none;stroke-opacity:1"
         d="M 579,481.75 594.125,491 604,475.375 c 0,0 -2,-9.625 -3.625,-9.75 C 598.75,465.5 586.5,463.5 586.5,463.5 l -8,9 z"
         id="path511" />
      <path
         id="path1"
         style="fill:#000000;fill-opacity:1"
         d="m 702.2715,286.07422 c -3.1046,0.0179 -5.014,0.58672 -8.4063,2.1582 -10.3743,4.80586 -17.6357,14.37815 -27.9121,36.79688 -10.9622,23.91491 -11.1752,24.13646 -34.1972,35.23242 -7.5594,3.64337 -16.156,8.22514 -19.1036,10.18164 -4.9416,3.28007 -5.9409,3.55664 -12.8242,3.55664 -13.6991,0 -22.9614,4.11234 -32.6894,14.51172 -7.1519,7.64549 -13.8669,20.48168 -16.6641,31.85742 -1.8157,7.38425 -2.2646,8.15195 -7.2969,12.45117 -10.2007,8.71472 -19.3297,24.44306 -22.5644,38.87696 -1.9937,8.89604 -2.0579,24.53674 -0.1387,33.59375 0.7913,3.73469 3.0444,10.53039 5.0078,15.10156 l 3.5703,8.31054 -1.4726,5.64844 c -4.6422,17.82218 -4.6771,39.30786 -0.09,53.57617 1.4906,4.63578 2.9126,8.95827 3.1602,9.60352 0.3082,0.80309 -1.8524,1.34699 -6.8496,1.72656 -9.1363,0.69396 -16.3981,3.41714 -23.2852,8.73047 -13.6089,10.49919 -20.4458,30.42567 -14.2441,41.51172 2.4448,4.37034 9.1735,8.5 13.8515,8.5 2.3993,0 2.7808,0.47364 3.4082,4.25 1.2368,7.44268 4.4369,11.72956 11.3829,15.24414 3.3719,1.70619 11.2732,1.74921 15.1933,0.084 1.2988,-0.55173 1.7262,0.19355 2.2324,3.88672 1.3373,9.75694 7.1308,15.57709 16.2579,16.33399 7.1442,0.59245 13.4447,-1.82327 19.4843,-7.47266 l 2.1973,-1.69922 c 4.0783,-4.71533 7.3901,-9.3549 10.2207,-14.62695 2.0656,-3.61331 1.8213,-5.74356 -0.8594,-7.5 -2.9944,-1.96203 -4.7757,-1.26282 -7.0859,2.78125 -4.0439,7.07914 -9.98,14.03329 -14.3438,16.80078 -5.7889,3.67117 -10.3932,3.82552 -13.7558,0.46289 -2.1301,-2.13009 -2.4551,-3.36299 -2.4551,-9.33008 0,-5.42284 0.5401,-7.9151 2.5547,-11.79492 6.8164,-13.12756 7.3476,-17.36317 2.375,-18.9414 -2.1478,-0.68168 -5.9295,1.82136 -5.9297,3.92578 -10e-5,0.60225 -2.1805,4.49861 -4.8457,8.6582 -6.7838,10.58785 -13.8435,13.68955 -19.6973,8.6543 -5.5299,-4.75658 -3.9845,-17.20695 3.5332,-28.46485 2.2051,-3.3021 4.0098,-6.64459 4.0098,-7.42773 0,-2.21459 -2.1392,-3.82422 -5.082,-3.82422 -3.1716,0 -6.1128,3.47963 -10.8106,12.78711 -4.533,8.98076 -9.3977,10.27681 -13.7344,3.6582 -3.5295,-5.38683 1.0307,-18.9017 9.1016,-26.97265 6.0512,-6.05115 11.9004,-8.55747 21.4024,-9.17188 1.7063,-0.11034 3.4134,-0.13864 5.1171,-0.0859 25.5557,0.78758 50.3258,19.55326 59.795,46.02344 2.0819,5.81981 2.6805,9.60715 3.0117,19.07031 0.1205,4.16601 0.3619,8.30283 0.4512,12.45703 1.8492,0.69826 3.4622,1.31172 5.2519,1.98633 1.8613,0.66298 4.9776,1.74562 5.0332,1.76563 0.01,-0.0892 0.014,-0.20311 0.022,-0.28906 0.2771,-4.08689 -1,-5.74704 -1,-12.24805 0,-6.325 -0.4421,-13.42824 -0.9102,-15.80859 l -0.8496,-4.32813 2.8496,1.45117 c 9.6004,4.88453 42.3319,13.32188 45.3711,11.69531 2.2494,-1.20382 3.0761,-4.48162 1.625,-6.44531 -0.6442,-0.87175 -7.0443,-3.04804 -14.6445,-4.97851 -14.6749,-3.72748 -20.5209,-5.63189 -32,-10.42579 -7.2877,-3.04345 -7.5937,-3.31138 -10.7793,-9.48046 -4.0904,-7.92122 -13.0011,-18.40299 -20.2207,-23.78516 -6.2326,-4.6464 -17.0871,-10.34267 -24.5,-12.85547 -3.9486,-1.33847 -5.4721,-2.51748 -7.2441,-5.60742 -6.7129,-11.70525 -9.3125,-27.14301 -7.3477,-43.63867 1.9549,-16.41161 1.3142,-15.73082 8.4844,-9.02344 11.6346,10.88357 25.8441,16.42002 42.0625,16.38672 45.6687,-0.0937 76.7009,-51.29275 59.5586,-98.26367 -5.3164,-14.56734 -16.063,-28.11424 -28.1055,-35.42969 -15.0637,-9.15071 -34.6843,-11.64811 -49.873,-6.34961 -3.006,1.04861 -5.7982,1.90625 -6.2051,1.90625 -0.988,0 3.6653,-12.27661 6.9394,-18.30664 3.4969,-6.44043 11.2229,-14.12482 17.5586,-17.46484 4.634,-2.44292 6.2132,-2.72757 15.1719,-2.72657 9.4108,0.001 10.383,0.20209 16.5,3.38282 4.1,2.13193 9.6619,6.46973 15.0645,11.74804 4.7108,4.60239 9.2542,8.36719 10.0957,8.36719 1.9634,0 4.8398,-3.16565 4.8398,-5.32617 0,-2.82591 -13.405,-15.98742 -20.5234,-20.15039 -8.1154,-4.74603 -8.9435,-3.82776 13.1211,-14.55274 12.0145,-5.83985 17.2466,-8.97318 20.625,-12.35156 4.4752,-4.47521 10.4371,-14.96378 16.7128,-29.40234 C 684.636,305.19832 694.2778,295 704.5,295 c 10.6263,0 17.3689,7.65384 30.627,34.76172 12.8188,26.20963 13.4564,26.88086 36.6582,38.60156 9.4678,4.78277 17.2148,8.86398 17.2148,9.07031 0,0.20632 -2.5183,1.79643 -5.5957,3.53321 C 776.534,384.84417 762,398.91917 762,401.69531 c 0,2.36826 2.9655,5.30469 5.3574,5.30469 0.9348,0 4.0479,-2.54431 6.9199,-5.6543 15.8121,-17.12273 32.334,-22.19031 48.5137,-14.8789 8.2449,3.72578 15.3155,11.39798 20.3047,22.0332 2.0641,4.4 4.0523,9.20175 4.418,10.67188 l 0.664,2.67382 -6.3379,-2.02929 c -12.7299,-4.07557 -33.2694,-2.22879 -45.6894,4.10742 -11.7829,6.01116 -23.3073,18.27469 -29.6445,31.54687 -11.7134,24.53196 -9.4915,53.23405 5.9121,76.4043 14.235,21.41255 40.9023,32.61002 64.6816,27.1582 9.2912,-2.13018 21.2779,-8.51974 28.293,-15.08203 l 6.4179,-6.0039 1.3165,7.27734 c 1.7306,9.5678 1.7065,27.83992 -0.045,34.77539 -0.764,3.025 -2.7811,8.81564 -4.4843,12.86914 -3.0925,7.35974 -3.1053,7.37387 -8.5977,9.08789 -18.5466,5.78794 -34.864,18.8657 -45.1582,36.19336 -2.9535,4.97148 -5.192,7.49778 -7.8418,8.84961 -6.0572,3.09015 -25.766,9.57973 -36.5,12.01758 -5.5,1.24914 -10.7875,2.67192 -11.75,3.16211 -3.9246,1.99874 -0.8056,9.29376 3.5723,8.35547 15.0634,-3.22839 29.7568,-7.23834 36.5175,-9.9668 7.9356,-3.20267 8.3042,-3.26174 7.5762,-1.2168 -0.4209,1.18207 -0.8609,8.428 -0.9765,16.10352 0,0 -0.3706,9.40832 -0.209,14.05274 3.396,-1.13683 6.8083,-2.22935 10.0824,-3.66953 0.014,-1.87775 0.075,-2.17773 -0.5417,-11.56881 -1.853,-28.19789 18.7753,-53.1492 47.0351,-63.00586 5.1795,-1.80652 11.7174,-2.78174 17.8555,-2.89453 6.1381,-0.11278 11.8771,0.6377 15.4609,2.2832 6.977,3.20348 12.4311,8.73169 16.3575,16.58008 5.3029,10.59984 4.8091,18.16301 -1.3516,20.71485 -4.3027,1.78224 -6.5655,0.11899 -10.5293,-7.73633 -5.4417,-10.7838 -10.6475,-14.76461 -14.4004,-11.01172 -1.9332,1.93317 -1.4516,3.6174 3.1875,11.16406 9.8044,15.94906 7.9265,30.86941 -3.6894,29.32031 -5.6634,-0.75526 -9.4956,-4.34806 -15.2149,-14.26171 -2.849,-4.93841 -5.9244,-9.07288 -6.8886,-9.25977 -2.0188,-0.39125 -5.5938,2.50468 -5.5938,4.53125 0,0.76088 2.025,5.80176 4.5,11.20117 3.7913,8.27114 4.5,10.79071 4.5,16.00586 0,5.23869 -0.3777,6.56719 -2.4551,8.64453 -4.3349,4.33496 -12.0419,2.71382 -18.3105,-3.85156 -1.6771,-1.75651 -5.0356,-6.11836 -7.4629,-9.69336 -3.68,-5.42009 -4.8829,-6.5 -7.2344,-6.5 -1.5827,0 -3.2957,0.75672 -3.9062,1.72461 -1.0527,1.66885 -1.7351,3.06684 1.7675,8.80078 1.1453,1.87494 3.9437,4.71175 6.857,8.18359 l 4.1855,4.7168 c 10.3308,10.09796 25.0813,10.81065 32.1426,1.55274 1.3593,-1.78207 3.005,-5.7801 3.6562,-8.88477 0.9353,-4.459 1.5057,-5.50667 2.7207,-4.98828 0.846,0.36093 3.8275,0.87091 6.625,1.13476 10.1209,0.95455 19.4141,-7.27922 19.4141,-17.20117 0,-3.32249 0.1995,-3.53994 3.25,-3.56054 4.7932,-0.0324 11.1161,-3.27872 13.8496,-7.11133 2.0837,-2.92144 2.4004,-4.49437 2.4004,-11.89063 0,-7.62723 -0.3481,-9.22851 -3.3105,-15.24414 -7.4478,-15.124 -22.1202,-24.6849 -37.9395,-24.7207 -2.8875,-0.007 -5.25,-0.21997 -5.25,-0.47461 0,-0.25464 0.8791,-2.69311 1.9531,-5.41797 1.074,-2.72486 2.7097,-8.68825 3.6348,-13.25391 2.1178,-10.45158 1.4288,-29.28505 -1.5469,-42.32031 l -2.043,-8.95703 3.5469,-8.25977 c 5.2475,-12.21739 6.7332,-20.56809 6.1934,-34.82812 -0.382,-10.09145 -0.9613,-13.50183 -3.6426,-21.44531 -4.1855,-12.40024 -8.8641,-19.91943 -18.0488,-29.01172 -7.1139,-7.04232 -7.6601,-7.90524 -9.834,-15.5 -6.0356,-21.08606 -15.7987,-34.46573 -30.2012,-41.39063 -6.7367,-3.2391 -8.4933,-3.64182 -17.5,-4.00195 -8.8065,-0.35213 -10.3577,-0.69004 -12.8926,-2.82031 -1.5849,-1.33197 -10.7334,-6.31092 -20.33,-11.0625 -12.787,-6.33126 -18.2507,-9.59093 -20.4512,-12.20313 -1.6514,-1.96045 -6.7956,-11.35943 -11.4317,-20.88672 -9.4592,-19.44007 -14.0717,-26.77071 -20.6601,-32.84375 -6.2822,-5.7907 -10.1818,-7.56102 -17.8731,-8.11132 -1.3999,-0.10017 -2.5666,-0.15442 -3.6015,-0.14844 z M 823.9238,427 C 855.9265,427 880,453.73972 880,489.28711 c 0,17.60692 -6.4766,33.25525 -18.9551,45.79297 -7.919,7.95658 -14.493,11.88961 -24.1758,14.4668 -6.7983,1.80943 -18.7754,1.75084 -25.7578,-0.12696 -27.258,-7.3306 -46.1766,-38.33495 -42.0547,-68.91992 2.0241,-15.01982 7.2769,-26.6925 16.3789,-36.4043 C 796.2602,432.54574 808.7452,427 823.9238,427 Z m -242.9883,0.19922 c 9.0615,-0.37335 12.0365,-0.0996 17.7657,1.64062 14.1597,4.30088 26.5827,15.26076 33.3086,29.38672 5.4076,11.35727 7.0831,18.45336 7.1601,30.31836 0.1888,29.1849 -17.5072,54.35814 -42.8496,60.95899 -7.5057,1.95499 -19.2966,1.79018 -26.8633,-0.37696 C 545.9059,542.38172 528,516.53613 528,489.28711 c 0,-25.60627 12.4248,-46.95948 33.3613,-57.33399 8.3069,-4.11626 9.1701,-4.32524 19.5742,-4.7539 z m 225.1407,29.3457 c -3.8695,0.1177 -7.7683,1.04818 -11.4942,2.8711 -19.2283,9.4075 -24.327,39.13907 -9.5898,55.92382 3.6505,4.15767 10.5062,8.51902 15.3398,9.75977 4.8468,1.24415 13.8824,0.342 18.9297,-1.89063 6.0678,-2.68408 12.3554,-9.16146 15.5899,-16.06054 2.3109,-4.929 2.6484,-6.9214 2.6484,-15.64844 0,-8.91276 -0.3131,-10.67982 -2.8848,-16.24805 -5.589,-12.10131 -16.9305,-19.06014 -28.539,-18.70703 z m -204.6133,0.125 c -15.0581,-0.17311 -30.1442,11.58034 -31.2559,31.92188 -0.9428,17.25242 6.9969,30.55729 21.2852,35.67187 13.4186,4.80331 29.0598,-2.11711 36.0683,-15.95898 2.7219,-5.37575 2.9395,-6.61671 2.9395,-16.80469 0,-9.81211 -0.2872,-11.61159 -2.6523,-16.65625 -5.7924,-12.35508 -16.0819,-18.05538 -26.3848,-18.17383 z M 589.8457,467 c 3.912,0 8.721,4.08512 9.5215,8.08789 0.7983,3.99128 -1.626,9.25304 -4.9629,10.77344 -3.9195,1.78583 -6.9955,1.35304 -10.3281,-1.45117 C 581.4822,482.22741 581,481.11792 581,477.33398 581,471.74463 585.061,467 589.8457,467 Z m 206.1328,0.0742 c 0.3011,-0.0153 0.6014,-0.0146 0.9004,0.004 3.0759,0.1858 5.9899,2.12471 7.6426,5.60743 2.1089,4.44429 1.1783,8.54732 -2.6719,11.78711 -3.8569,3.24531 -7.868,3.22364 -11.7734,-0.0625 C 787.4822,482.22749 787,481.118 787,477.33406 c 0,-3.62712 0.5614,-5.04779 2.9238,-7.41015 1.8142,-1.81408 3.9472,-2.74255 6.0547,-2.84961 z M 676.8516,546 c -2.2429,0 -5.8516,3.41228 -5.8516,5.5332 0,0.84354 1.5919,2.47346 3.5371,3.6211 1.9451,1.14764 4.2204,3.41003 5.0567,5.02734 1.1829,2.28789 2.0966,2.8708 4.1132,2.62891 3.9039,-0.46827 4.8225,-2.73745 3.1875,-7.8711 C 685.4415,550.37713 680.5242,546 676.8516,546 Z m 54.4589,0.35742 c -1.299,-0.0256 -2.7327,0.3267 -4.1933,1.08203 -5.1526,2.66453 -8.7181,10.92773 -6.084,14.10157 2.1827,2.62997 6.0112,1.80011 7.2871,-1.58008 0.6512,-1.7251 2.0959,-3.27761 3.3399,-3.58985 1.2057,-0.30261 2.9729,-1.41207 3.9257,-2.46484 1.4132,-1.56162 1.525,-2.36903 0.6075,-4.38281 -0.9252,-2.03038 -2.7177,-3.12331 -4.8829,-3.16602 z M 833.0391,574 c -1.0002,0 -4.3043,2.44625 -7.3418,5.43555 -14.0758,13.85277 -28.4516,15.71509 -71.1973,9.22656 -49.6654,-7.5389 -51.4503,-7.55954 -93.5,-1.14649 -42.8921,6.54157 -55.428,6.40872 -69.4258,-0.73242 -2.192,-1.11829 -6.5771,-4.50456 -9.7441,-7.52539 -4.794,-4.57263 -6.1804,-5.38616 -8.2793,-4.85937 -1.6305,0.40923 -2.7564,1.5751 -3.1895,3.30078 -0.5906,2.35308 0.1553,3.45509 6.3203,9.33398 7.8264,7.46317 15.1486,11.39884 25.1543,13.51953 7.2391,1.53431 20.693,1.78562 31.4707,0.58789 l 6.8047,-0.75585 3.4805,4.73828 c 10.2874,14.01434 28.4178,25.38488 46.8945,29.4082 19.6412,4.27692 44.4309,-2.33039 61.0489,-16.27148 3.8307,-3.21361 9.1196,-8.54606 11.7539,-11.84961 l 4.791,-6.00586 6.709,0.74609 c 17.919,1.99327 33.0074,0.3704 43.7402,-4.70703 C 824.9812,593.39113 838,581.69541 838,578.95117 838,576.62365 835.3718,574 833.0391,574 Z m -128.8047,33.81641 c 6.5553,0.019 13.1375,0.8561 18.9648,2.57617 5.985,1.76663 11.8008,5.04329 11.8008,6.64844 0,1.49846 -7.5301,4.66509 -16.6289,6.99218 -12.9704,3.31725 -23.9747,2.46388 -38.5293,-2.98828 -7.8428,-2.93794 -8.7587,-4.30519 -4.5488,-6.78906 7.1648,-4.22734 18.0159,-6.4711 28.9414,-6.43945 z"
         sodipodi:nodetypes="csssssssssscccssssssssssscccssssssssssssssssscscccccscccssssssssssssssssssssssssscssssssssssccsssssscssssssssssscccsssssssssssssssssssssccssssssssscssscccssssssssscssccssssssssssscsssssssssssssssssssssssssssscsssssssssssssssssssssssssssssssssccssccsssssssssss" />
    </g>
  </g>
</svg>
